<svg width="150" height="150" viewBox="0 0 150 150" fill="none" xmlns="http://www.w3.org/2000/svg">
<rect x="0.5" y="0.5" width="149" height="149" fill="white"/>
<path fill-rule="evenodd" clip-rule="evenodd" d="M33.4538 19.4347L33.0191 19.8693V24.6667V29.464L33.4538 29.8986L33.8882 30.3333H75.5096H117.131L117.565 29.8986L118 29.464V24.6667V19.8693L117.565 19.4347L117.131 19H75.5096H33.8882L33.4538 19.4347ZM115.167 24.6667V27.5H75.5096H35.8518V24.6667V21.8333H75.5096H115.167V24.6667ZM72.4322 33.3547C71.3166 33.6312 69.7194 34.5757 68.9434 35.4176C68.5459 35.8489 67.9684 36.7344 67.6603 37.3848L67.1 38.5677V43.0833V47.599L67.5939 48.654C67.8655 49.2343 68.2842 49.9666 68.5241 50.2812L68.9605 50.8534L67.8765 51.4312C66.6034 52.11 64.9516 53.6754 64.2561 54.8624C63.9854 55.3244 63.5627 56.23 63.3166 56.8746C62.8883 57.9964 62.8662 58.2429 62.8003 62.6068L62.7316 67.1667H60.6482H58.5649L58.467 65.4401C58.3615 63.58 57.9102 62.0491 57.0197 60.5291C56.3242 59.3421 54.6724 57.7766 53.3993 57.0979L52.3153 56.5201L52.7517 55.9479C52.9916 55.6332 53.4103 54.901 53.6819 54.3207L54.1758 53.2656V48.75V44.2344L53.6155 43.0515C52.8358 41.4051 51.8321 40.3798 50.2207 39.5833L48.8829 38.9219H45.7755H42.668L41.4853 39.4823C39.8394 40.2622 38.8143 41.2661 38.0179 42.8779L37.3567 44.216V48.7408V53.2656L37.8506 54.3207C38.1222 54.901 38.5409 55.6332 38.7808 55.9479L39.2172 56.5201L38.1332 57.0979C36.8601 57.7766 35.2083 59.3421 34.5128 60.5291C34.2421 60.9911 33.816 61.8967 33.5658 62.5412L33.1112 63.7135L33.0556 72.0793L33 80.4449L33.4442 80.8892C33.8114 81.2565 34.058 81.3333 34.8701 81.3333H35.8518V92.2319V103.131L36.2865 103.565L36.7209 104H75.5096H114.298L114.733 103.565L115.167 103.131V89.3986V75.6667H116.149C116.955 75.6667 117.209 75.5889 117.565 75.2319C117.996 74.8009 118 74.7699 118 71.4167C118 68.0634 117.996 68.0324 117.565 67.6014C117.147 67.1826 117.043 67.1667 114.733 67.1667H112.335V66.169C112.335 65.6202 112.241 64.8586 112.126 64.4762C111.872 63.6275 110.768 62.336 110.039 62.0337L109.502 61.8111V60.239V58.6667H113.316C117.13 58.6667 117.131 58.6667 117.565 58.2319L118 57.7974V50.1667V42.536L117.565 42.1014L117.131 41.6667H105.253H93.3748L92.9404 42.1014L92.5057 42.536V50.1667V57.7974L92.9404 58.2319C93.3748 58.6667 93.3754 58.6667 97.1894 58.6667H101.004V60.239V61.8111L100.467 62.0337C99.7373 62.336 98.6336 63.6275 98.3793 64.4762C98.2648 64.8586 98.1711 65.6202 98.1711 66.169V67.1667H93.2293H88.2875L88.2188 62.6068C88.1529 58.2429 88.1308 57.9964 87.7025 56.8746C87.4565 56.23 87.0337 55.3244 86.763 54.8624C86.0675 53.6754 84.4157 52.11 83.1426 51.4312L82.0586 50.8534L82.495 50.2812C82.7349 49.9666 83.1536 49.2343 83.4252 48.654L83.9191 47.599V43.0833V38.5677L83.3588 37.3848C82.5791 35.7386 81.5754 34.7131 79.9643 33.9166L78.6266 33.2552L75.873 33.2198C74.3586 33.2003 72.8102 33.2609 72.4322 33.3547ZM78.1904 36.2056C79.4212 36.5745 80.9979 38.2948 80.9979 39.269C80.9979 39.6194 80.9278 39.6144 79.6087 39.1687L78.5048 38.796L74.5728 39.3492C72.4102 39.6534 70.4546 39.944 70.2268 39.995C69.8404 40.0814 69.8212 40.0487 69.9387 39.5047C70.2475 38.074 71.3993 36.7136 72.7011 36.2424C73.4709 35.9639 77.2977 35.938 78.1904 36.2056ZM48.4899 41.882C49.4624 42.1694 50.929 43.6364 51.2164 44.6091C51.5078 45.5954 51.5078 51.9046 51.2164 52.8909C50.929 53.8636 49.4624 55.3306 48.4899 55.618C47.548 55.8964 43.9845 55.8964 43.0426 55.618C42.0701 55.3306 40.6035 53.8636 40.3161 52.8909C40.0247 51.9046 40.0247 45.5954 40.3161 44.6091C40.5826 43.707 42.0646 42.1721 42.9336 41.8981C43.789 41.6284 47.5944 41.6174 48.4899 41.882ZM79.5895 42.1694L81.0864 42.6721L81.1392 44.5158C81.2097 46.9739 80.9898 47.7162 79.8569 48.8446C78.7323 49.9646 78.068 50.1667 75.5096 50.1667C72.9492 50.1667 72.286 49.9648 71.166 48.8446C70.6046 48.2829 70.1951 47.6834 70.0595 47.2242C69.8265 46.4355 69.7594 42.9146 69.977 42.8933C70.1292 42.8784 77.8495 41.7166 77.9961 41.6865C78.0493 41.6755 78.7663 41.8928 79.5895 42.1694ZM115.167 50.1667V55.8333H105.253H95.3384V50.1667V44.5H105.253H115.167V50.1667ZM76.9259 56.2401V59.4802L76.2177 60.1719L75.5096 60.8636L74.8014 60.1719L74.0932 59.4802V56.2401V53H75.5096H76.9259V56.2401ZM71.2605 56.9309V60.6845L73.0844 62.509C75.5306 64.9556 75.4885 64.9556 77.9347 62.509L79.7586 60.6845V56.9309C79.7586 53.8764 79.8036 53.1771 80.0004 53.1771C80.1334 53.1771 80.8012 53.4569 81.4844 53.7986C82.9939 54.5541 84.0167 55.6168 84.7751 57.2181L85.3355 58.401L85.3934 62.7839L85.4513 67.1667H75.5096H65.5679L65.6258 62.7839L65.6836 58.401L66.244 57.2181C67.0024 55.6168 68.0252 54.5541 69.5347 53.7986C70.2179 53.4569 70.8857 53.1771 71.0187 53.1771C71.2155 53.1771 71.2605 53.8764 71.2605 56.9309ZM51.6379 59.4166C53.2485 60.2131 54.2525 61.2392 55.0318 62.8848L55.5922 64.0677L55.6456 71.2839L55.6991 78.5H45.7663H35.8334L35.8869 71.2839L35.9403 64.0677L36.5007 62.8848C36.8087 62.2344 37.3863 61.3489 37.7837 60.9176C38.5613 60.0739 40.1611 59.1289 41.2725 58.8567C41.6505 58.7641 43.8365 58.7035 46.1303 58.7217L50.3007 58.7552L51.6379 59.4166ZM106.669 60.0833V61.5H105.253H103.837V60.0833V58.6667H105.253H106.669V60.0833ZM109.067 64.7681C109.424 65.1249 109.502 65.3781 109.502 66.1847V67.1667H105.253H101.004V66.1847C101.004 65.3781 101.082 65.1249 101.438 64.7681C101.869 64.3369 101.9 64.3333 105.253 64.3333C108.605 64.3333 108.636 64.3369 109.067 64.7681ZM115.167 71.4167V72.8333H86.8403H58.5134V71.4167V70H86.8403H115.167V71.4167ZM112.335 88.4167V101.167H84.0076H55.6807V91.25V81.3333H56.6624C57.4688 81.3333 57.722 81.2556 58.0787 80.8986C58.4975 80.48 58.5134 80.376 58.5134 78.0653V75.6667H85.424H112.335V88.4167ZM52.848 91.25V101.167H50.0153H47.1826V94.0833V87H45.7663H44.3499V94.0833V101.167H41.5172H38.6845V91.25V81.3333H45.7663H52.848V91.25Z" fill="black"/>
<path d="M26.7451 137L26.0205 134.621H22.377L21.6523 137H19.3691L22.8965 126.965H25.4873L29.0283 137H26.7451ZM25.5146 132.844L24.79 130.52C24.7445 130.365 24.6829 130.166 24.6055 129.925C24.5326 129.679 24.4574 129.43 24.3799 129.18C24.307 128.924 24.2477 128.703 24.2021 128.517C24.1566 128.703 24.0928 128.936 24.0107 129.214C23.9333 129.487 23.8581 129.747 23.7852 129.993C23.7122 130.239 23.6598 130.415 23.6279 130.52L22.9102 132.844H25.5146ZM34.4697 129.214C35.2855 129.214 35.9417 129.437 36.4385 129.884C36.9352 130.326 37.1836 131.037 37.1836 132.017V137H35.0986V132.536C35.0986 131.989 34.9984 131.577 34.7979 131.299C34.6019 131.021 34.292 130.882 33.8682 130.882C33.2301 130.882 32.7949 131.098 32.5625 131.531C32.3301 131.964 32.2139 132.589 32.2139 133.404V137H30.1289V129.357H31.7217L32.002 130.335H32.1182C32.2822 130.071 32.485 129.856 32.7266 129.692C32.9727 129.528 33.2438 129.408 33.54 129.33C33.8408 129.253 34.1507 129.214 34.4697 129.214ZM42.5498 135.476C42.7777 135.476 42.9987 135.453 43.2129 135.407C43.4316 135.362 43.6481 135.305 43.8623 135.236V136.788C43.639 136.888 43.361 136.97 43.0283 137.034C42.7002 137.103 42.3402 137.137 41.9482 137.137C41.4925 137.137 41.0824 137.064 40.7178 136.918C40.3577 136.768 40.0729 136.51 39.8633 136.146C39.6582 135.776 39.5557 135.264 39.5557 134.607V130.923H38.5576V130.041L39.7061 129.344L40.3076 127.73H41.6406V129.357H43.7803V130.923H41.6406V134.607C41.6406 134.899 41.7227 135.118 41.8867 135.264C42.0553 135.405 42.2764 135.476 42.5498 135.476ZM48.5449 129.2C49.5703 129.2 50.3564 129.424 50.9033 129.87C51.4502 130.317 51.7236 130.996 51.7236 131.907V137H50.2676L49.8643 135.961H49.8096C49.5908 136.234 49.3675 136.458 49.1396 136.631C48.9118 136.804 48.6497 136.932 48.3535 137.014C48.0573 137.096 47.6973 137.137 47.2734 137.137C46.8223 137.137 46.4167 137.05 46.0566 136.877C45.7012 136.704 45.4209 136.439 45.2158 136.084C45.0107 135.724 44.9082 135.268 44.9082 134.717C44.9082 133.906 45.193 133.309 45.7627 132.926C46.3324 132.538 47.1868 132.324 48.3262 132.283L49.6523 132.242V131.907C49.6523 131.506 49.5475 131.212 49.3379 131.025C49.1283 130.839 48.8366 130.745 48.4629 130.745C48.0938 130.745 47.7314 130.798 47.376 130.902C47.0205 131.007 46.665 131.139 46.3096 131.299L45.6191 129.891C46.0247 129.676 46.4782 129.508 46.9795 129.385C47.4854 129.262 48.0072 129.2 48.5449 129.2ZM49.6523 133.459L48.8457 133.486C48.1712 133.505 47.7018 133.625 47.4375 133.849C47.1777 134.072 47.0479 134.366 47.0479 134.73C47.0479 135.049 47.1413 135.277 47.3281 135.414C47.515 135.546 47.7588 135.612 48.0596 135.612C48.5062 135.612 48.8822 135.48 49.1875 135.216C49.4974 134.951 49.6523 134.576 49.6523 134.088V133.459ZM58.1426 129.214C58.2474 129.214 58.3682 129.221 58.5049 129.234C58.6462 129.243 58.7601 129.257 58.8467 129.275L58.6895 131.23C58.6211 131.208 58.5231 131.192 58.3955 131.183C58.2725 131.169 58.1654 131.162 58.0742 131.162C57.8053 131.162 57.5433 131.196 57.2881 131.265C57.0374 131.333 56.8118 131.445 56.6113 131.6C56.4108 131.75 56.2513 131.951 56.1328 132.201C56.0189 132.447 55.9619 132.75 55.9619 133.11V137H53.877V129.357H55.4561L55.7637 130.643H55.8662C56.0166 130.383 56.2035 130.146 56.4268 129.932C56.6546 129.713 56.9121 129.54 57.1992 129.412C57.4909 129.28 57.8053 129.214 58.1426 129.214ZM65.9561 126.363V131.121C65.9561 131.408 65.9447 131.695 65.9219 131.982C65.8991 132.27 65.874 132.557 65.8467 132.844H65.874C66.0153 132.643 66.1589 132.445 66.3047 132.249C66.4551 132.053 66.6146 131.864 66.7832 131.682L68.9229 129.357H71.2744L68.2393 132.673L71.459 137H69.0527L66.8516 133.903L65.9561 134.621V137H63.8711V126.363H65.9561ZM75.7041 129.214C76.4105 129.214 77.0189 129.351 77.5293 129.624C78.0397 129.893 78.4339 130.285 78.7119 130.8C78.9899 131.315 79.1289 131.944 79.1289 132.687V133.698H74.2002C74.223 134.286 74.3984 134.749 74.7266 135.086C75.0592 135.419 75.5195 135.585 76.1074 135.585C76.5951 135.585 77.0417 135.535 77.4473 135.435C77.8529 135.334 78.2699 135.184 78.6982 134.983V136.597C78.32 136.784 77.9235 136.92 77.5088 137.007C77.0986 137.093 76.5996 137.137 76.0117 137.137C75.2461 137.137 74.5671 136.995 73.9746 136.713C73.3867 136.43 72.9242 136 72.5869 135.421C72.2542 134.842 72.0879 134.113 72.0879 133.233C72.0879 132.34 72.2383 131.597 72.5391 131.005C72.8444 130.408 73.2682 129.961 73.8105 129.665C74.3529 129.364 74.984 129.214 75.7041 129.214ZM75.7178 130.697C75.3122 130.697 74.9749 130.827 74.7061 131.087C74.4417 131.347 74.2891 131.755 74.248 132.311H77.1738C77.1693 132.001 77.1123 131.725 77.0029 131.483C76.8981 131.242 76.7386 131.05 76.5244 130.909C76.3148 130.768 76.0459 130.697 75.7178 130.697ZM86.5459 126.363V131.121C86.5459 131.408 86.5345 131.695 86.5117 131.982C86.4889 132.27 86.4639 132.557 86.4365 132.844H86.4639C86.6051 132.643 86.7487 132.445 86.8945 132.249C87.0449 132.053 87.2044 131.864 87.373 131.682L89.5127 129.357H91.8643L88.8291 132.673L92.0488 137H89.6426L87.4414 133.903L86.5459 134.621V137H84.4609V126.363H86.5459ZM100.088 133.165C100.088 133.803 100.001 134.368 99.8281 134.86C99.6595 135.353 99.4111 135.77 99.083 136.111C98.7594 136.449 98.3675 136.704 97.9072 136.877C97.4515 137.05 96.9365 137.137 96.3623 137.137C95.8245 137.137 95.3301 137.05 94.8789 136.877C94.4323 136.704 94.0426 136.449 93.71 136.111C93.3818 135.77 93.1266 135.353 92.9443 134.86C92.7666 134.368 92.6777 133.803 92.6777 133.165C92.6777 132.317 92.8281 131.6 93.1289 131.012C93.4297 130.424 93.8581 129.977 94.4141 129.672C94.9701 129.367 95.6331 129.214 96.4033 129.214C97.1188 129.214 97.7523 129.367 98.3037 129.672C98.8597 129.977 99.2949 130.424 99.6094 131.012C99.9284 131.6 100.088 132.317 100.088 133.165ZM94.8037 133.165C94.8037 133.666 94.8584 134.088 94.9678 134.43C95.0771 134.771 95.248 135.029 95.4805 135.202C95.7129 135.375 96.016 135.462 96.3896 135.462C96.7588 135.462 97.0573 135.375 97.2852 135.202C97.5176 135.029 97.6862 134.771 97.791 134.43C97.9004 134.088 97.9551 133.666 97.9551 133.165C97.9551 132.659 97.9004 132.24 97.791 131.907C97.6862 131.57 97.5176 131.317 97.2852 131.148C97.0527 130.98 96.7497 130.896 96.376 130.896C95.8245 130.896 95.4235 131.085 95.1729 131.463C94.9268 131.841 94.8037 132.409 94.8037 133.165ZM106.151 129.214C106.967 129.214 107.623 129.437 108.12 129.884C108.617 130.326 108.865 131.037 108.865 132.017V137H106.78V132.536C106.78 131.989 106.68 131.577 106.479 131.299C106.284 131.021 105.974 130.882 105.55 130.882C104.912 130.882 104.477 131.098 104.244 131.531C104.012 131.964 103.896 132.589 103.896 133.404V137H101.811V129.357H103.403L103.684 130.335H103.8C103.964 130.071 104.167 129.856 104.408 129.692C104.654 129.528 104.925 129.408 105.222 129.33C105.522 129.253 105.832 129.214 106.151 129.214ZM114.231 135.476C114.459 135.476 114.68 135.453 114.895 135.407C115.113 135.362 115.33 135.305 115.544 135.236V136.788C115.321 136.888 115.043 136.97 114.71 137.034C114.382 137.103 114.022 137.137 113.63 137.137C113.174 137.137 112.764 137.064 112.399 136.918C112.039 136.768 111.755 136.51 111.545 136.146C111.34 135.776 111.237 135.264 111.237 134.607V130.923H110.239V130.041L111.388 129.344L111.989 127.73H113.322V129.357H115.462V130.923H113.322V134.607C113.322 134.899 113.404 135.118 113.568 135.264C113.737 135.405 113.958 135.476 114.231 135.476ZM120.247 129.214C120.953 129.214 121.562 129.351 122.072 129.624C122.583 129.893 122.977 130.285 123.255 130.8C123.533 131.315 123.672 131.944 123.672 132.687V133.698H118.743C118.766 134.286 118.941 134.749 119.27 135.086C119.602 135.419 120.062 135.585 120.65 135.585C121.138 135.585 121.585 135.535 121.99 135.435C122.396 135.334 122.813 135.184 123.241 134.983V136.597C122.863 136.784 122.466 136.92 122.052 137.007C121.642 137.093 121.143 137.137 120.555 137.137C119.789 137.137 119.11 136.995 118.518 136.713C117.93 136.43 117.467 136 117.13 135.421C116.797 134.842 116.631 134.113 116.631 133.233C116.631 132.34 116.781 131.597 117.082 131.005C117.387 130.408 117.811 129.961 118.354 129.665C118.896 129.364 119.527 129.214 120.247 129.214ZM120.261 130.697C119.855 130.697 119.518 130.827 119.249 131.087C118.985 131.347 118.832 131.755 118.791 132.311H121.717C121.712 132.001 121.655 131.725 121.546 131.483C121.441 131.242 121.282 131.05 121.067 130.909C120.858 130.768 120.589 130.697 120.261 130.697ZM129.633 129.214C129.738 129.214 129.858 129.221 129.995 129.234C130.136 129.243 130.25 129.257 130.337 129.275L130.18 131.23C130.111 131.208 130.013 131.192 129.886 131.183C129.763 131.169 129.656 131.162 129.564 131.162C129.296 131.162 129.034 131.196 128.778 131.265C128.528 131.333 128.302 131.445 128.102 131.6C127.901 131.75 127.742 131.951 127.623 132.201C127.509 132.447 127.452 132.75 127.452 133.11V137H125.367V129.357H126.946L127.254 130.643H127.356C127.507 130.383 127.694 130.146 127.917 129.932C128.145 129.713 128.402 129.54 128.689 129.412C128.981 129.28 129.296 129.214 129.633 129.214Z" fill="black"/>
<rect x="0.5" y="0.5" width="149" height="149" stroke="black"/>
</svg>
