<svg width="106" height="36" viewBox="0 0 106 36" fill="none" xmlns="http://www.w3.org/2000/svg">
<path d="M6.00997 14.504C6.40997 13.88 6.96197 13.376 7.66597 12.992C8.36997 12.608 9.19397 12.416 10.138 12.416C11.242 12.416 12.242 12.696 13.138 13.256C14.034 13.816 14.738 14.616 15.25 15.656C15.778 16.696 16.042 17.904 16.042 19.28C16.042 20.656 15.778 21.872 15.25 22.928C14.738 23.968 14.034 24.776 13.138 25.352C12.242 25.912 11.242 26.192 10.138 26.192C9.20997 26.192 8.38597 26 7.66597 25.616C6.96197 25.232 6.40997 24.736 6.00997 24.128V32.384H1.90597V12.608H6.00997V14.504ZM11.866 19.28C11.866 18.256 11.578 17.456 11.002 16.88C10.442 16.288 9.74597 15.992 8.91397 15.992C8.09797 15.992 7.40197 16.288 6.82597 16.88C6.26597 17.472 5.98597 18.28 5.98597 19.304C5.98597 20.328 6.26597 21.136 6.82597 21.728C7.40197 22.32 8.09797 22.616 8.91397 22.616C9.72997 22.616 10.426 22.32 11.002 21.728C11.578 21.12 11.866 20.304 11.866 19.28ZM17.379 19.28C17.379 17.904 17.635 16.696 18.147 15.656C18.675 14.616 19.387 13.816 20.283 13.256C21.179 12.696 22.179 12.416 23.283 12.416C24.227 12.416 25.051 12.608 25.755 12.992C26.475 13.376 27.027 13.88 27.411 14.504V12.608H31.515V26H27.411V24.104C27.011 24.728 26.451 25.232 25.731 25.616C25.027 26 24.203 26.192 23.259 26.192C22.171 26.192 21.179 25.912 20.283 25.352C19.387 24.776 18.675 23.968 18.147 22.928C17.635 21.872 17.379 20.656 17.379 19.28ZM27.411 19.304C27.411 18.28 27.123 17.472 26.547 16.88C25.987 16.288 25.299 15.992 24.483 15.992C23.667 15.992 22.971 16.288 22.395 16.88C21.835 17.456 21.555 18.256 21.555 19.28C21.555 20.304 21.835 21.12 22.395 21.728C22.971 22.32 23.667 22.616 24.483 22.616C25.299 22.616 25.987 22.32 26.547 21.728C27.123 21.136 27.411 20.328 27.411 19.304ZM39.9321 26.192C38.7641 26.192 37.7241 25.992 36.8121 25.592C35.9001 25.192 35.1801 24.648 34.6521 23.96C34.1241 23.256 33.8281 22.472 33.7641 21.608H37.8201C37.8681 22.072 38.0841 22.448 38.4681 22.736C38.8521 23.024 39.3241 23.168 39.8841 23.168C40.3961 23.168 40.7881 23.072 41.0601 22.88C41.3481 22.672 41.4921 22.408 41.4921 22.088C41.4921 21.704 41.2921 21.424 40.8921 21.248C40.4921 21.056 39.8441 20.848 38.9481 20.624C37.9881 20.4 37.1881 20.168 36.5481 19.928C35.9081 19.672 35.3561 19.28 34.8921 18.752C34.4281 18.208 34.1961 17.48 34.1961 16.568C34.1961 15.8 34.4041 15.104 34.8201 14.48C35.2521 13.84 35.8761 13.336 36.6921 12.968C37.5241 12.6 38.5081 12.416 39.6441 12.416C41.3241 12.416 42.6441 12.832 43.6041 13.664C44.5801 14.496 45.1401 15.6 45.2841 16.976H41.4921C41.4281 16.512 41.2201 16.144 40.8681 15.872C40.5321 15.6 40.0841 15.464 39.5241 15.464C39.0441 15.464 38.6761 15.56 38.4201 15.752C38.1641 15.928 38.0361 16.176 38.0361 16.496C38.0361 16.88 38.2361 17.168 38.6361 17.36C39.0521 17.552 39.6921 17.744 40.5561 17.936C41.5481 18.192 42.3561 18.448 42.9801 18.704C43.6041 18.944 44.1481 19.344 44.6121 19.904C45.0921 20.448 45.3401 21.184 45.3561 22.112C45.3561 22.896 45.1321 23.6 44.6841 24.224C44.2521 24.832 43.6201 25.312 42.7881 25.664C41.9721 26.016 41.0201 26.192 39.9321 26.192ZM47.0509 19.28C47.0509 17.904 47.3069 16.696 47.8189 15.656C48.3469 14.616 49.0589 13.816 49.9549 13.256C50.8509 12.696 51.8509 12.416 52.9549 12.416C53.8989 12.416 54.7229 12.608 55.4269 12.992C56.1469 13.376 56.6989 13.88 57.0829 14.504V12.608H61.1869V26H57.0829V24.104C56.6829 24.728 56.1229 25.232 55.4029 25.616C54.6989 26 53.8749 26.192 52.9309 26.192C51.8429 26.192 50.8509 25.912 49.9549 25.352C49.0589 24.776 48.3469 23.968 47.8189 22.928C47.3069 21.872 47.0509 20.656 47.0509 19.28ZM57.0829 19.304C57.0829 18.28 56.7949 17.472 56.2189 16.88C55.6589 16.288 54.9709 15.992 54.1549 15.992C53.3389 15.992 52.6429 16.288 52.0669 16.88C51.5069 17.456 51.2269 18.256 51.2269 19.28C51.2269 20.304 51.5069 21.12 52.0669 21.728C52.6429 22.32 53.3389 22.616 54.1549 22.616C54.9709 22.616 55.6589 22.32 56.2189 21.728C56.7949 21.136 57.0829 20.328 57.0829 19.304ZM68.26 14.84C68.74 14.104 69.34 13.528 70.06 13.112C70.78 12.68 71.58 12.464 72.46 12.464V16.808H71.332C70.308 16.808 69.54 17.032 69.028 17.48C68.516 17.912 68.26 18.68 68.26 19.784V26H64.156V12.608H68.26V14.84ZM76.4856 11.216C75.7656 11.216 75.1736 11.008 74.7096 10.592C74.2616 10.16 74.0376 9.632 74.0376 9.008C74.0376 8.368 74.2616 7.84 74.7096 7.424C75.1736 6.992 75.7656 6.776 76.4856 6.776C77.1896 6.776 77.7656 6.992 78.2136 7.424C78.6776 7.84 78.9096 8.368 78.9096 9.008C78.9096 9.632 78.6776 10.16 78.2136 10.592C77.7656 11.008 77.1896 11.216 76.4856 11.216ZM78.5256 12.608V26H74.4216V12.608H78.5256ZM89.6597 12.464C91.2277 12.464 92.4757 12.976 93.4037 14C94.3477 15.008 94.8197 16.4 94.8197 18.176V26H90.7397V18.728C90.7397 17.832 90.5077 17.136 90.0437 16.64C89.5797 16.144 88.9557 15.896 88.1717 15.896C87.3877 15.896 86.7637 16.144 86.2997 16.64C85.8357 17.136 85.6037 17.832 85.6037 18.728V26H81.4997V12.608H85.6037V14.384C86.0197 13.792 86.5797 13.328 87.2837 12.992C87.9877 12.64 88.7797 12.464 89.6597 12.464ZM103.072 8.552L102.592 20.048H99.1116L98.6316 8.552H103.072ZM100.912 26.192C100.192 26.192 99.5996 25.984 99.1356 25.568C98.6876 25.136 98.4636 24.608 98.4636 23.984C98.4636 23.344 98.6876 22.808 99.1356 22.376C99.5996 21.944 100.192 21.728 100.912 21.728C101.616 21.728 102.192 21.944 102.64 22.376C103.104 22.808 103.336 23.344 103.336 23.984C103.336 24.608 103.104 25.136 102.64 25.568C102.192 25.984 101.616 26.192 100.912 26.192Z" fill="#459CF5"/>
</svg>
