<svg width="150" height="150" viewBox="0 0 150 150" fill="none" xmlns="http://www.w3.org/2000/svg">
<rect width="150" height="150" fill="white"/>
<rect y="113" width="150" height="37" fill="#2489F8"/>
<path d="M34.2725 139.939C33.999 139.939 33.7598 139.924 33.5547 139.892C33.3451 139.864 33.1673 139.83 33.0215 139.789V138.025C33.1673 138.057 33.3245 138.087 33.4932 138.114C33.6572 138.146 33.8327 138.162 34.0195 138.162C34.2656 138.162 34.4867 138.114 34.6826 138.019C34.8786 137.927 35.0335 137.752 35.1475 137.492C35.2614 137.232 35.3184 136.859 35.3184 136.371V127.006H37.4375V136.357C37.4375 137.214 37.3031 137.905 37.0342 138.429C36.7699 138.957 36.3984 139.34 35.9199 139.577C35.446 139.819 34.8968 139.939 34.2725 139.939ZM42.9199 129.2C43.9453 129.2 44.7314 129.424 45.2783 129.87C45.8252 130.317 46.0986 130.996 46.0986 131.907V137H44.6426L44.2393 135.961H44.1846C43.9658 136.234 43.7425 136.458 43.5146 136.631C43.2868 136.804 43.0247 136.932 42.7285 137.014C42.4323 137.096 42.0723 137.137 41.6484 137.137C41.1973 137.137 40.7917 137.05 40.4316 136.877C40.0762 136.704 39.7959 136.439 39.5908 136.084C39.3857 135.724 39.2832 135.268 39.2832 134.717C39.2832 133.906 39.568 133.309 40.1377 132.926C40.7074 132.538 41.5618 132.324 42.7012 132.283L44.0273 132.242V131.907C44.0273 131.506 43.9225 131.212 43.7129 131.025C43.5033 130.839 43.2116 130.745 42.8379 130.745C42.4688 130.745 42.1064 130.798 41.751 130.902C41.3955 131.007 41.04 131.139 40.6846 131.299L39.9941 129.891C40.3997 129.676 40.8532 129.508 41.3545 129.385C41.8604 129.262 42.3822 129.2 42.9199 129.2ZM44.0273 133.459L43.2207 133.486C42.5462 133.505 42.0768 133.625 41.8125 133.849C41.5527 134.072 41.4229 134.366 41.4229 134.73C41.4229 135.049 41.5163 135.277 41.7031 135.414C41.89 135.546 42.1338 135.612 42.4346 135.612C42.8812 135.612 43.2572 135.48 43.5625 135.216C43.8724 134.951 44.0273 134.576 44.0273 134.088V133.459ZM53.584 134.73C53.584 135.25 53.4609 135.69 53.2148 136.05C52.9733 136.405 52.611 136.676 52.1279 136.863C51.6449 137.046 51.0433 137.137 50.3232 137.137C49.79 137.137 49.332 137.103 48.9492 137.034C48.571 136.966 48.1882 136.852 47.8008 136.692V134.97C48.2155 135.157 48.6598 135.312 49.1338 135.435C49.6123 135.553 50.0316 135.612 50.3916 135.612C50.7972 135.612 51.0866 135.553 51.2598 135.435C51.4375 135.312 51.5264 135.152 51.5264 134.956C51.5264 134.828 51.4899 134.715 51.417 134.614C51.3486 134.509 51.1982 134.393 50.9658 134.266C50.7334 134.133 50.3688 133.963 49.8721 133.753C49.3936 133.552 48.9993 133.35 48.6895 133.145C48.3841 132.939 48.1562 132.698 48.0059 132.42C47.86 132.137 47.7871 131.78 47.7871 131.347C47.7871 130.64 48.0605 130.109 48.6074 129.754C49.1589 129.394 49.8949 129.214 50.8154 129.214C51.2894 129.214 51.7406 129.262 52.1689 129.357C52.6019 129.453 53.0462 129.606 53.502 129.815L52.873 131.319C52.4948 131.155 52.137 131.021 51.7998 130.916C51.4671 130.811 51.1276 130.759 50.7812 130.759C50.4759 130.759 50.2458 130.8 50.0908 130.882C49.9359 130.964 49.8584 131.089 49.8584 131.258C49.8584 131.381 49.8971 131.49 49.9746 131.586C50.0566 131.682 50.2116 131.789 50.4395 131.907C50.6719 132.021 51.0114 132.169 51.458 132.352C51.891 132.529 52.2669 132.716 52.5859 132.912C52.9049 133.104 53.151 133.343 53.3242 133.63C53.4974 133.912 53.584 134.279 53.584 134.73ZM58.3418 129.2C59.3672 129.2 60.1533 129.424 60.7002 129.87C61.2471 130.317 61.5205 130.996 61.5205 131.907V137H60.0645L59.6611 135.961H59.6064C59.3877 136.234 59.1644 136.458 58.9365 136.631C58.7087 136.804 58.4466 136.932 58.1504 137.014C57.8542 137.096 57.4941 137.137 57.0703 137.137C56.6191 137.137 56.2135 137.05 55.8535 136.877C55.498 136.704 55.2178 136.439 55.0127 136.084C54.8076 135.724 54.7051 135.268 54.7051 134.717C54.7051 133.906 54.9899 133.309 55.5596 132.926C56.1292 132.538 56.9837 132.324 58.123 132.283L59.4492 132.242V131.907C59.4492 131.506 59.3444 131.212 59.1348 131.025C58.9251 130.839 58.6335 130.745 58.2598 130.745C57.8906 130.745 57.5283 130.798 57.1729 130.902C56.8174 131.007 56.4619 131.139 56.1064 131.299L55.416 129.891C55.8216 129.676 56.2751 129.508 56.7764 129.385C57.2822 129.262 57.804 129.2 58.3418 129.2ZM59.4492 133.459L58.6426 133.486C57.9681 133.505 57.4987 133.625 57.2344 133.849C56.9746 134.072 56.8447 134.366 56.8447 134.73C56.8447 135.049 56.9382 135.277 57.125 135.414C57.3118 135.546 57.5557 135.612 57.8564 135.612C58.3031 135.612 58.679 135.48 58.9844 135.216C59.2943 134.951 59.4492 134.576 59.4492 134.088V133.459ZM71.5625 129.214C72.4238 129.214 73.1188 129.549 73.6475 130.219C74.1807 130.889 74.4473 131.871 74.4473 133.165C74.4473 134.031 74.3219 134.76 74.0713 135.353C73.8206 135.94 73.4743 136.385 73.0322 136.686C72.5902 136.986 72.082 137.137 71.5078 137.137C71.1387 137.137 70.8219 137.091 70.5576 137C70.2933 136.904 70.0677 136.784 69.8809 136.638C69.694 136.487 69.5322 136.328 69.3955 136.159H69.2861C69.3226 136.341 69.3499 136.528 69.3682 136.72C69.3864 136.911 69.3955 137.098 69.3955 137.28V140.363H67.3105V129.357H69.0059L69.2998 130.349H69.3955C69.5322 130.144 69.6986 129.954 69.8945 129.781C70.0905 129.608 70.3252 129.471 70.5986 129.371C70.8766 129.266 71.1979 129.214 71.5625 129.214ZM70.8926 130.882C70.528 130.882 70.2386 130.957 70.0244 131.107C69.8102 131.258 69.653 131.483 69.5527 131.784C69.457 132.085 69.4046 132.465 69.3955 132.926V133.151C69.3955 133.644 69.4411 134.061 69.5322 134.402C69.6279 134.744 69.7852 135.004 70.0039 135.182C70.2272 135.359 70.5326 135.448 70.9199 135.448C71.2389 135.448 71.501 135.359 71.7061 135.182C71.9111 135.004 72.0638 134.744 72.1641 134.402C72.2689 134.056 72.3213 133.634 72.3213 133.138C72.3213 132.39 72.2051 131.827 71.9727 131.449C71.7402 131.071 71.3802 130.882 70.8926 130.882ZM78.2549 129.357V137H76.1699V129.357H78.2549ZM77.2158 126.363C77.5257 126.363 77.7923 126.436 78.0156 126.582C78.2389 126.723 78.3506 126.99 78.3506 127.382C78.3506 127.769 78.2389 128.038 78.0156 128.188C77.7923 128.334 77.5257 128.407 77.2158 128.407C76.9014 128.407 76.6325 128.334 76.4092 128.188C76.1904 128.038 76.0811 127.769 76.0811 127.382C76.0811 126.99 76.1904 126.723 76.4092 126.582C76.6325 126.436 76.9014 126.363 77.2158 126.363ZM83.5527 137.137C82.7962 137.137 82.1514 137 81.6182 136.727C81.085 136.449 80.6794 136.02 80.4014 135.441C80.1234 134.863 79.9844 134.122 79.9844 133.22C79.9844 132.285 80.1416 131.524 80.4561 130.937C80.7751 130.344 81.2148 129.909 81.7754 129.631C82.3405 129.353 82.9945 129.214 83.7373 129.214C84.266 129.214 84.7217 129.266 85.1045 129.371C85.4919 129.471 85.8291 129.592 86.1162 129.733L85.501 131.347C85.1729 131.215 84.8675 131.107 84.585 131.025C84.3024 130.939 84.0199 130.896 83.7373 130.896C83.3727 130.896 83.0697 130.982 82.8281 131.155C82.5866 131.324 82.4066 131.579 82.2881 131.921C82.1696 132.263 82.1104 132.691 82.1104 133.206C82.1104 133.712 82.1742 134.131 82.3018 134.464C82.4294 134.797 82.6139 135.045 82.8555 135.209C83.097 135.368 83.391 135.448 83.7373 135.448C84.1702 135.448 84.5553 135.391 84.8926 135.277C85.2298 135.159 85.5579 134.995 85.877 134.785V136.569C85.5579 136.77 85.223 136.913 84.8721 137C84.5257 137.091 84.0859 137.137 83.5527 137.137ZM89.7393 126.363V131.121C89.7393 131.408 89.7279 131.695 89.7051 131.982C89.6823 132.27 89.6572 132.557 89.6299 132.844H89.6572C89.7985 132.643 89.9421 132.445 90.0879 132.249C90.2383 132.053 90.3978 131.864 90.5664 131.682L92.7061 129.357H95.0576L92.0225 132.673L95.2422 137H92.8359L90.6348 133.903L89.7393 134.621V137H87.6543V126.363H89.7393ZM106.986 129.357V137H105.387L105.106 136.022H104.997C104.833 136.282 104.628 136.494 104.382 136.658C104.136 136.822 103.865 136.943 103.568 137.021C103.272 137.098 102.965 137.137 102.646 137.137C102.099 137.137 101.622 137.041 101.217 136.85C100.811 136.654 100.494 136.351 100.267 135.94C100.043 135.53 99.9316 134.997 99.9316 134.341V129.357H102.017V133.821C102.017 134.368 102.115 134.781 102.311 135.059C102.507 135.337 102.819 135.476 103.247 135.476C103.671 135.476 104.004 135.38 104.245 135.188C104.487 134.993 104.655 134.708 104.751 134.334C104.851 133.956 104.901 133.495 104.901 132.953V129.357H106.986ZM113.426 129.214C114.287 129.214 114.982 129.549 115.511 130.219C116.044 130.889 116.311 131.871 116.311 133.165C116.311 134.031 116.185 134.76 115.935 135.353C115.684 135.94 115.338 136.385 114.896 136.686C114.453 136.986 113.945 137.137 113.371 137.137C113.002 137.137 112.685 137.091 112.421 137C112.157 136.904 111.931 136.784 111.744 136.638C111.557 136.487 111.396 136.328 111.259 136.159H111.149C111.186 136.341 111.213 136.528 111.231 136.72C111.25 136.911 111.259 137.098 111.259 137.28V140.363H109.174V129.357H110.869L111.163 130.349H111.259C111.396 130.144 111.562 129.954 111.758 129.781C111.954 129.608 112.188 129.471 112.462 129.371C112.74 129.266 113.061 129.214 113.426 129.214ZM112.756 130.882C112.391 130.882 112.102 130.957 111.888 131.107C111.674 131.258 111.516 131.483 111.416 131.784C111.32 132.085 111.268 132.465 111.259 132.926V133.151C111.259 133.644 111.304 134.061 111.396 134.402C111.491 134.744 111.648 135.004 111.867 135.182C112.09 135.359 112.396 135.448 112.783 135.448C113.102 135.448 113.364 135.359 113.569 135.182C113.774 135.004 113.927 134.744 114.027 134.402C114.132 134.056 114.185 133.634 114.185 133.138C114.185 132.39 114.068 131.827 113.836 131.449C113.604 131.071 113.243 130.882 112.756 130.882Z" fill="white"/>
<path fill-rule="evenodd" clip-rule="evenodd" d="M71.5901 18.0903C70.6723 18.2455 68.9088 18.8943 68.0196 19.4037C67.5053 19.6984 66.4707 20.571 65.7206 21.3428C63.7012 23.4205 62.6421 25.8313 62.5376 28.5879C62.4826 30.0382 62.7836 30.4735 63.841 30.4735H64.5401L64.5561 32.0798C64.5817 34.6704 65.3948 36.6487 67.185 38.4771C68.0995 39.4111 70.2525 40.7152 70.8903 40.7213C71.4947 40.7272 71.6272 40.9748 71.4287 41.7275C71.3255 42.1189 71.1742 43.3609 71.0924 44.4875L70.9438 46.5358L70.0344 47.3775C69.534 47.8404 68.818 48.4791 68.4431 48.7967L67.7615 49.3742L63.8525 49.6778L59.9435 49.9815L54.9964 48.302C52.2755 47.3784 49.8807 46.6226 49.6748 46.6226C49.0316 46.6226 48.2811 47.1399 48.0285 47.7572C47.844 48.2082 47.7869 49.2694 47.7869 52.2413C47.7869 56.902 47.7797 56.8817 49.4618 57.006C50.0368 57.0484 50.5064 57.1324 50.5052 57.1925C50.5042 57.2528 50.0069 59.0547 49.4001 61.1968C48.7934 63.3391 48.297 65.3456 48.297 65.6557C48.297 66.058 48.4253 66.3227 48.745 66.5793C49.3208 67.0421 49.7051 67.0341 50.2333 66.5486C50.5717 66.2376 50.8874 65.3435 51.7817 62.164C52.3998 59.9674 52.9838 57.9161 53.0797 57.6058L53.254 57.0414H55.0261C56.0007 57.0414 56.7981 57.0742 56.7981 57.1144C56.7981 57.1545 56.5284 58.1444 56.1988 59.3141C54.0162 67.0586 53.9619 74.5245 56.0352 81.8805C56.6143 83.9356 58.1338 88.2679 58.6027 89.2008C58.7323 89.4588 58.8384 89.7127 58.8384 89.7651C58.8384 89.8177 58.3212 89.8606 57.6888 89.8606H56.5395L51.9506 84.6224C49.4268 81.7414 47.2999 79.2786 47.2243 79.1496C47.1413 79.0082 47.4967 77.4456 48.1169 75.2236C48.6834 73.1935 49.1471 71.4331 49.1471 71.3117C49.1471 70.9028 48.3282 70.2386 47.8243 70.2386C46.9864 70.2386 46.6938 70.8007 45.7447 74.2324C45.2563 75.9993 44.7861 77.5815 44.7005 77.7488C44.5818 77.9799 44.3288 78.0527 43.6426 78.0527C42.3266 78.0527 40.2571 78.6377 38.6056 79.4766C37.4352 80.0711 36.8508 80.5256 35.5316 81.8666C34.1675 83.2535 33.7763 83.7814 33.1239 85.1157C32.6955 85.9919 32.2488 87.1474 32.1313 87.6834C31.9343 88.5827 31.9443 88.6944 32.2619 89.129C32.5159 89.4769 32.8794 89.6649 33.6505 89.8474L34.6951 90.0947L34.698 90.9761C34.7131 95.4828 37.8426 99.607 42.0843 100.71C46.393 101.831 51.1904 99.6237 53.1168 95.6342C53.5629 94.7099 53.7052 94.5473 53.9912 94.6347C54.1791 94.692 54.7536 94.7826 55.2679 94.8359C56.0983 94.9219 56.2442 94.887 56.5701 94.5239C56.7719 94.299 57.0038 93.7633 57.0854 93.3335L57.2339 92.5521H70.556H83.878L84.1107 93.5072C84.8539 96.5557 87.0889 99.4174 89.7883 100.776C93.0045 102.396 96.2276 102.408 99.3973 100.812C102.303 99.3495 104.413 96.6097 105.255 93.2033L105.438 92.4653H106.428C107.272 92.4653 107.485 92.3974 107.867 92.0076C108.254 91.6118 108.315 91.4057 108.312 90.4882C108.31 89.9042 108.204 88.9186 108.075 88.2978C107.92 87.5464 107.887 86.8775 107.977 86.297C108.597 82.3002 108.153 77.9908 106.805 74.927L106.461 74.1456L106.954 73.6247C107.79 72.7424 107.975 72.0372 107.975 69.735V67.6573L111.843 67.6023L115.711 67.547L116.642 67.008C117.672 66.411 118.568 65.256 118.86 64.1476C118.977 63.7048 119.022 60.5055 118.99 54.916C118.942 46.469 118.937 46.3531 118.566 45.6443C118.087 44.7302 117.309 43.9356 116.414 43.4468C115.715 43.065 115.662 43.0629 107.04 43.0629H98.3687L97.4439 43.5838C96.4971 44.1171 95.6528 45.1204 95.2787 46.1566C95.1359 46.552 95.0754 49.3175 95.0662 55.8693L95.0533 65.0292H92.2598H89.4663L89.6244 64.466C89.7113 64.1562 89.7825 62.6514 89.7825 61.1221C89.7825 51.4696 87.0776 43.438 82.3116 38.9388C81.0959 37.7912 81.0758 37.7585 81.3506 37.376C83.0046 35.0738 83.7005 33.3611 84.0111 30.8281C84.2296 29.0467 84.0931 27.5174 83.5606 25.7851C82.4144 22.0557 79.1933 19.0153 75.5542 18.2278C74.4694 17.993 72.5567 17.9267 71.5901 18.0903ZM75.2128 20.8348C78.536 21.7188 80.9963 24.5859 81.4718 28.1293C81.7054 29.8692 81.3788 32.0436 80.6425 33.6507C80.0698 34.9005 78.575 36.6324 77.5734 37.2067L76.8843 37.6017L76.83 33.7337C76.7692 29.3955 76.6763 29.018 75.4947 28.309C74.9457 27.9798 74.5728 27.9518 70.017 27.9003L65.1285 27.845L65.2379 27.3793C66.3588 22.5999 70.8272 19.668 75.2128 20.8348ZM74.2254 34.4674V38.3744L73.0298 38.3651C70.3018 38.3439 67.9788 36.3666 67.245 33.4408C66.993 32.4366 67.0117 31.0505 67.2832 30.6003C67.3276 30.5267 68.9078 30.4876 70.7947 30.5135L74.2254 30.5603V34.4674ZM81.0248 41.3264C84.455 44.8007 86.6356 50.7414 87.1608 58.0422L87.2764 59.6508L81.4361 59.605L75.5958 59.5593L75.1369 57.8591C74.8846 56.924 74.6321 55.8691 74.5759 55.5149L74.4737 54.8708L76.5012 53.5213C79.7981 51.3266 80.6952 50.1418 80.6727 48.0118C80.6397 44.881 77.6861 42.7917 74.737 43.813C74.177 44.0072 73.6907 44.1376 73.6569 44.1029C73.5925 44.0372 74.1272 41.1953 74.2222 41.0983C74.2521 41.0677 74.7728 40.9368 75.3791 40.807C75.9854 40.6775 77.0069 40.3438 77.6489 40.0652C78.7612 39.5828 78.8397 39.5721 79.3205 39.835C79.5978 39.9867 80.3648 40.6579 81.0248 41.3264ZM115.835 46.2349C116.378 46.789 116.392 46.843 116.45 48.5357L116.508 50.2692H107.056H97.6036V48.6897C97.6036 47.5155 97.6777 46.9823 97.8925 46.611C98.4925 45.5736 98.4393 45.5792 107.249 45.6254L115.28 45.6676L115.835 46.2349ZM77.5516 46.7199C78.4614 47.6102 78.3218 48.7814 77.1786 49.8492C76.8635 50.1433 75.224 51.296 73.5353 52.4105L70.4647 54.4367H67.9671H65.4693V53.308C65.4693 52.6872 65.5267 52.1772 65.5968 52.1746C65.6668 52.172 66.4345 52.0998 67.3025 52.014L68.8806 51.8581L71.7265 49.3489C73.2917 47.9689 74.8386 46.6695 75.164 46.4617C75.9406 45.9652 76.8848 46.0675 77.5516 46.7199ZM53.8094 50.612C55.4794 51.1824 56.8744 51.6784 56.9093 51.714C56.9441 51.7496 56.8568 52.0618 56.7153 52.4075C56.5738 52.7534 56.4581 53.3514 56.4581 53.7366V54.4367H53.3976H50.3372V52.0057C50.3372 50.1451 50.3884 49.5746 50.555 49.5746C50.6749 49.5746 52.1393 50.0414 53.8094 50.612ZM62.8339 53.3949V54.3499H61.0672C59.1303 54.3499 58.8557 54.2133 59.0669 53.354C59.2024 52.8024 59.4731 52.6841 60.9637 52.5251C62.8873 52.3196 62.8339 52.2948 62.8339 53.3949ZM116.476 54.2631V55.6523H107.04H97.6036V54.2631V52.8739H107.04H116.476V54.2631ZM72.6187 58.2465L73.0494 59.9724L71.6595 60.676C69.247 61.8968 67.5935 64.1658 66.8089 67.3317C66.5066 68.5518 66.4415 69.4691 66.3665 73.558L66.2786 78.3532L65.3865 78.7309C63.607 79.4842 62.4974 80.9244 62.0576 83.0519L61.8677 83.9707L60.5869 83.9202L59.3059 83.8698L58.7352 81.9644C57.5933 78.1534 57.1368 75.0022 57.1415 70.9641C57.1463 66.7479 57.7337 62.9119 59.0162 58.7216L59.5304 57.0414L65.3477 57.0354C70.0706 57.0303 71.2449 56.9824 71.5901 56.781C71.8239 56.6445 72.0541 56.53 72.1017 56.5266C72.1491 56.5233 72.3819 57.2972 72.6187 58.2465ZM116.445 61.0323L116.391 63.8079L115.835 64.375L115.28 64.9423L106.442 64.9903L97.6036 65.0382V61.6476V58.257H107.052H116.5L116.445 61.0323ZM87.2322 62.9138C87.2322 63.9317 86.7633 65.3166 86.1946 65.9781C85.2166 67.1157 84.2915 67.3262 79.7512 67.4435C75.9765 67.5413 75.7211 67.5689 75.1301 67.9443C74.7469 68.1876 74.3518 68.6584 74.11 69.1599C73.7363 69.9345 73.7125 70.1976 73.6618 74.1022L73.6081 78.2263H71.239H68.8697V74.5054C68.8697 72.459 68.9517 70.1833 69.0517 69.4486C69.5638 65.6888 71.0768 63.4545 73.6815 62.6115C74.6471 62.2989 75.2599 62.2696 80.9839 62.2605L87.2322 62.2508V62.9138ZM105.425 69.5961C105.425 70.8908 105.355 71.6291 105.221 71.7666C105.069 71.9214 103.345 71.975 98.5158 71.975C94.4294 71.975 91.8424 72.0421 91.5503 72.1554C90.6165 72.518 90.3809 73.3378 90.9851 74.1222L91.3374 74.5797H97.5334H103.729L104.068 75.1441C104.884 76.5034 105.479 78.7599 105.682 81.2651L105.794 82.6543L104.842 81.582C103.054 79.5682 100.497 77.9549 98.0287 77.2832C96.5241 76.8738 93.9529 76.7467 92.3859 77.0045C86.2791 78.0092 81.759 82.7272 80.6929 89.2094L80.5858 89.8606H71.1014H61.6172L60.9929 88.3016C60.6495 87.4443 60.3686 86.702 60.3686 86.652C60.3686 86.6021 63.5079 86.5613 67.345 86.5613C74.9472 86.5613 75.1752 86.5349 75.7849 85.5854C76.0654 85.1485 76.1008 84.5901 76.1474 79.8405L76.1991 74.5797H81.5359C86.8582 74.5797 86.8736 74.5787 87.1375 74.1937C87.5166 73.6412 87.4726 72.7886 87.0447 72.3926C86.7119 72.0849 86.3202 72.0582 81.4339 72.0092L76.1807 71.9564V71.3044C76.1807 70.108 76.1863 70.1062 80.2613 70.0081C82.2718 69.9599 84.2522 69.8328 84.6623 69.726C85.7428 69.4445 87.1404 68.7058 87.679 68.1317L88.1459 67.6339H96.7853H105.425V69.5961ZM96.8385 79.7049C98.3068 80.0222 100.457 81.0652 101.633 82.0305C102.666 82.879 103.893 84.488 104.605 85.9275C105.024 86.7765 105.765 89.1938 105.765 89.7147C105.765 89.795 100.687 89.8606 94.4815 89.8606H83.1981L83.3584 88.9596C83.9732 85.5052 86.3843 82.2474 89.4879 80.6775C91.8179 79.4991 94.3403 79.1654 96.8385 79.7049ZM49.8642 86.1385C52.5089 89.1532 54.6997 91.7429 54.7325 91.8937C54.7745 92.0868 54.6992 92.1428 54.4775 92.0838C54.3044 92.0378 49.8782 90.9977 44.6415 89.7726C39.4048 88.5475 35.0612 87.494 34.9893 87.4316C34.6968 87.1785 36.006 85.0487 37.2455 83.7615C39.1739 81.7588 41.4712 80.6933 43.9134 80.6688L45.0556 80.6573L49.8642 86.1385ZM73.6304 82.3938V83.9566H69.0576H64.485L64.6101 83.3923C64.9028 82.0726 65.6175 81.2675 66.7409 80.9923C67.0234 80.9232 68.6892 80.8586 70.4424 80.8487L73.6304 80.831V82.3938ZM44.4714 92.3945C48.0249 93.2262 50.9672 93.9373 51.0098 93.9743C51.0525 94.0115 50.9377 94.3318 50.7548 94.6861C50.1968 95.7674 48.7456 97.1194 47.4934 97.7252C46.4143 98.2474 46.2239 98.2825 44.4714 98.2825C42.7209 98.2825 42.5279 98.247 41.4551 97.728C40.0534 97.0498 38.8081 95.8186 38.1301 94.4405C37.6312 93.4266 37.2455 91.9855 37.2455 91.1355C37.2455 90.7622 37.3067 90.7064 37.628 90.7867C37.8383 90.8391 40.918 91.5627 44.4714 92.3945ZM102.639 93.0297C102.418 94.1936 101.467 95.842 100.395 96.9207C97.1087 100.229 92.0986 100.22 88.8488 96.9011C87.7836 95.8132 86.8332 94.1646 86.6171 93.0297L86.5096 92.4653H94.6282H102.747L102.639 93.0297Z" fill="black"/>
</svg>
