<svg width="1660" height="300" viewBox="0 0 1660 300" fill="none" xmlns="http://www.w3.org/2000/svg">
<path d="M230.859 281.25C228.886 281.258 226.961 280.642 225.357 279.492L150 224.859L74.6426 279.492C73.0326 280.66 71.093 281.285 69.1042 281.278C67.1154 281.271 65.1803 280.631 63.5789 279.452C61.9775 278.272 60.7926 276.614 60.1956 274.717C59.5986 272.82 59.6204 270.782 60.2578 268.898L89.6485 181.846L13.4766 129.609C11.8267 128.479 10.5814 126.851 9.92271 124.963C9.26404 123.074 9.22649 121.025 9.81556 119.114C10.4046 117.202 11.5894 115.53 13.1969 114.34C14.8043 113.15 16.7501 112.505 18.75 112.5H112.723L141.082 25.2245C141.693 23.3403 142.885 21.698 144.487 20.5332C146.089 19.3684 148.019 18.741 150 18.741C151.981 18.741 153.911 19.3684 155.513 20.5332C157.115 21.698 158.307 23.3403 158.918 25.2245L187.277 112.529H281.25C283.252 112.528 285.203 113.168 286.815 114.356C288.427 115.544 289.617 117.216 290.209 119.129C290.802 121.041 290.767 123.094 290.109 124.985C289.451 126.876 288.205 128.507 286.553 129.639L210.352 181.846L239.725 268.875C240.201 270.284 240.334 271.786 240.115 273.257C239.896 274.728 239.33 276.126 238.464 277.335C237.598 278.544 236.456 279.529 235.134 280.21C233.812 280.891 232.347 281.247 230.859 281.25Z" fill="#F7C444"/>
<path d="M570.859 281.25C568.886 281.258 566.961 280.642 565.357 279.492L490 224.859L414.643 279.492C413.033 280.66 411.093 281.285 409.104 281.278C407.115 281.271 405.18 280.631 403.579 279.452C401.977 278.272 400.793 276.614 400.196 274.717C399.599 272.82 399.62 270.782 400.258 268.898L429.648 181.846L353.477 129.609C351.827 128.479 350.581 126.851 349.923 124.963C349.264 123.074 349.226 121.025 349.816 119.114C350.405 117.202 351.589 115.53 353.197 114.34C354.804 113.15 356.75 112.505 358.75 112.5H452.723L481.082 25.2245C481.693 23.3403 482.885 21.698 484.487 20.5332C486.089 19.3684 488.019 18.741 490 18.741C491.981 18.741 493.911 19.3684 495.513 20.5332C497.115 21.698 498.307 23.3403 498.918 25.2245L527.277 112.529H621.25C623.252 112.528 625.203 113.168 626.815 114.356C628.427 115.544 629.617 117.216 630.209 119.129C630.802 121.041 630.767 123.094 630.109 124.985C629.451 126.876 628.205 128.507 626.553 129.639L550.352 181.846L579.725 268.875C580.201 270.284 580.334 271.786 580.115 273.257C579.896 274.728 579.33 276.126 578.464 277.335C577.598 278.544 576.456 279.529 575.134 280.21C573.812 280.891 572.347 281.247 570.859 281.25Z" fill="#F7C444"/>
<path d="M910.859 281.25C908.886 281.258 906.961 280.642 905.357 279.492L830 224.859L754.643 279.492C753.033 280.66 751.093 281.285 749.104 281.278C747.115 281.271 745.18 280.631 743.579 279.452C741.977 278.272 740.793 276.614 740.196 274.717C739.599 272.82 739.62 270.782 740.258 268.898L769.648 181.846L693.477 129.609C691.827 128.479 690.581 126.851 689.923 124.963C689.264 123.074 689.226 121.025 689.816 119.114C690.405 117.202 691.589 115.53 693.197 114.34C694.804 113.15 696.75 112.505 698.75 112.5H792.723L821.082 25.2245C821.693 23.3403 822.885 21.698 824.487 20.5332C826.089 19.3684 828.019 18.741 830 18.741C831.981 18.741 833.911 19.3684 835.513 20.5332C837.115 21.698 838.307 23.3403 838.918 25.2245L867.277 112.529H961.25C963.252 112.528 965.203 113.168 966.815 114.356C968.427 115.544 969.617 117.216 970.209 119.129C970.802 121.041 970.767 123.094 970.109 124.985C969.451 126.876 968.205 128.507 966.553 129.639L890.352 181.846L919.725 268.875C920.201 270.284 920.334 271.786 920.115 273.257C919.896 274.728 919.33 276.126 918.464 277.335C917.598 278.544 916.456 279.529 915.134 280.21C913.812 280.891 912.347 281.247 910.859 281.25Z" fill="#F7C444"/>
<path d="M1250.86 281.25C1248.89 281.258 1246.96 280.642 1245.36 279.492L1170 224.859L1094.64 279.492C1093.03 280.66 1091.09 281.285 1089.1 281.278C1087.12 281.271 1085.18 280.631 1083.58 279.452C1081.98 278.272 1080.79 276.614 1080.2 274.717C1079.6 272.82 1079.62 270.782 1080.26 268.898L1109.65 181.846L1033.48 129.609C1031.83 128.479 1030.58 126.851 1029.92 124.963C1029.26 123.074 1029.23 121.025 1029.82 119.114C1030.4 117.202 1031.59 115.53 1033.2 114.34C1034.8 113.15 1036.75 112.505 1038.75 112.5H1132.72L1161.08 25.2245C1161.69 23.3403 1162.89 21.698 1164.49 20.5332C1166.09 19.3684 1168.02 18.741 1170 18.741C1171.98 18.741 1173.91 19.3684 1175.51 20.5332C1177.12 21.698 1178.31 23.3403 1178.92 25.2245L1207.28 112.529H1301.25C1303.25 112.528 1305.2 113.168 1306.81 114.356C1308.43 115.544 1309.62 117.216 1310.21 119.129C1310.8 121.041 1310.77 123.094 1310.11 124.985C1309.45 126.876 1308.2 128.507 1306.55 129.639L1230.35 181.846L1259.72 268.875C1260.2 270.284 1260.33 271.786 1260.12 273.257C1259.9 274.728 1259.33 276.126 1258.46 277.335C1257.6 278.544 1256.46 279.529 1255.13 280.21C1253.81 280.891 1252.35 281.247 1250.86 281.25Z" fill="#F7C444"/>
<path d="M1590.86 281.25C1588.89 281.258 1586.96 280.642 1585.36 279.492L1510 224.859L1434.64 279.492C1433.03 280.66 1431.09 281.285 1429.1 281.278C1427.12 281.271 1425.18 280.631 1423.58 279.452C1421.98 278.272 1420.79 276.614 1420.2 274.717C1419.6 272.82 1419.62 270.782 1420.26 268.898L1449.65 181.846L1373.48 129.609C1371.83 128.479 1370.58 126.851 1369.92 124.963C1369.26 123.074 1369.23 121.025 1369.82 119.114C1370.4 117.202 1371.59 115.53 1373.2 114.34C1374.8 113.15 1376.75 112.505 1378.75 112.5H1472.72L1501.08 25.2245C1501.69 23.3403 1502.89 21.698 1504.49 20.5332C1506.09 19.3684 1508.02 18.741 1510 18.741C1511.98 18.741 1513.91 19.3684 1515.51 20.5332C1517.12 21.698 1518.31 23.3403 1518.92 25.2245L1547.28 112.529H1641.25C1643.25 112.528 1645.2 113.168 1646.81 114.356C1648.43 115.544 1649.62 117.216 1650.21 119.129C1650.8 121.041 1650.77 123.094 1650.11 124.985C1649.45 126.876 1648.2 128.507 1646.55 129.639L1570.35 181.846L1599.72 268.875C1600.2 270.284 1600.33 271.786 1600.12 273.257C1599.9 274.728 1599.33 276.126 1598.46 277.335C1597.6 278.544 1596.46 279.529 1595.13 280.21C1593.81 280.891 1592.35 281.247 1590.86 281.25Z" fill="#F7C444"/>
</svg>
