<svg xmlns="http://www.w3.org/2000/svg" xmlns:xlink="http://www.w3.org/1999/xlink" width="150" zoomAndPan="magnify" viewBox="0 0 112.5 54" height="72" preserveAspectRatio="xMidYMid meet" version="1.0"><defs><g/></defs><g fill="#459cf5" fill-opacity="1"><g transform="translate(0.788794, 26.237853)"><g><path d="M 1.558594 -18.460938 L 1.558594 -9.230469 C 1.558594 -6.132812 2.113281 -3.769531 3.214844 -2.148438 C 4.3125 -0.523438 6.132812 0.277344 8.65625 0.277344 C 11.558594 0.277344 13.542969 -0.640625 14.574219 -2.460938 L 14.820312 0 L 20.082031 0 L 20.082031 -18.460938 L 14.574219 -18.460938 L 14.574219 -9.230469 C 14.574219 -6.230469 13.132812 -4.378906 10.558594 -4.378906 C 8.082031 -4.378906 7.066406 -6.03125 7.066406 -9.230469 L 7.066406 -18.460938 Z M 1.558594 -18.460938 "/></g></g></g><g fill="#459cf5" fill-opacity="1"><g transform="translate(22.40546, 26.237853)"><g><path d="M 25.738281 -18.753906 C 22.507812 -18.753906 20.261719 -17.492188 19 -14.96875 C 18.035156 -17.492188 16.015625 -18.753906 12.984375 -18.753906 C 9.984375 -18.753906 8.015625 -17.835938 7.066406 -16.015625 L 6.820312 -18.460938 L 1.558594 -18.460938 L 1.558594 0 L 7.066406 0 L 7.066406 -9.230469 C 7.066406 -12.230469 8.492188 -14.082031 10.96875 -14.082031 C 13.277344 -14.082031 14.3125 -12.394531 14.3125 -9.230469 L 14.3125 0 L 19.820312 0 L 19.820312 -9.230469 C 19.820312 -12.230469 21.246094 -14.082031 23.722656 -14.082031 C 25.96875 -14.082031 27.097656 -12.460938 27.097656 -9.230469 L 27.097656 0 L 32.605469 0 L 32.605469 -9.230469 C 32.605469 -12.328125 32.199219 -14.492188 31.164062 -16.195312 C 30.117188 -17.902344 28.34375 -18.753906 25.738281 -18.753906 Z M 25.738281 -18.753906 "/></g></g></g><g fill="#459cf5" fill-opacity="1"><g transform="translate(56.543073, 26.237853)"><g><path d="M 14.050781 -18.460938 L 7.492188 -11.148438 L 7.492188 -25.179688 L 1.984375 -25.179688 L 1.984375 0 L 7.492188 0 L 7.492188 -4.359375 L 9.867188 -6.984375 L 14.277344 0 L 20.328125 0 L 13.359375 -10.804688 L 20.328125 -18.460938 Z M 14.050781 -18.460938 "/></g></g></g><g fill="#459cf5" fill-opacity="1"><g transform="translate(77.569747, 26.237853)"><g><path d="M 25.738281 -18.753906 C 22.507812 -18.753906 20.261719 -17.492188 19 -14.96875 C 18.035156 -17.492188 16.015625 -18.753906 12.984375 -18.753906 C 9.984375 -18.753906 8.015625 -17.835938 7.066406 -16.015625 L 6.820312 -18.460938 L 1.558594 -18.460938 L 1.558594 0 L 7.066406 0 L 7.066406 -9.230469 C 7.066406 -12.230469 8.492188 -14.082031 10.96875 -14.082031 C 13.277344 -14.082031 14.3125 -12.394531 14.3125 -9.230469 L 14.3125 0 L 19.820312 0 L 19.820312 -9.230469 C 19.820312 -12.230469 21.246094 -14.082031 23.722656 -14.082031 C 25.96875 -14.082031 27.097656 -12.460938 27.097656 -9.230469 L 27.097656 0 L 32.605469 0 L 32.605469 -9.230469 C 32.605469 -12.328125 32.199219 -14.492188 31.164062 -16.195312 C 30.117188 -17.902344 28.34375 -18.753906 25.738281 -18.753906 Z M 25.738281 -18.753906 "/></g></g></g><g fill="#459cf5" fill-opacity="1"><g transform="translate(1.272724, 49.097785)"><g><path d="M 2.660156 -12.671875 C 3.195312 -12.671875 3.660156 -12.863281 4.054688 -13.257812 C 4.4375 -13.652344 4.628906 -14.113281 4.628906 -14.660156 C 4.628906 -15.203125 4.4375 -15.667969 4.054688 -16.058594 C 3.660156 -16.445312 3.195312 -16.636719 2.660156 -16.636719 C 2.105469 -16.636719 1.644531 -16.445312 1.261719 -16.058594 C 0.867188 -15.667969 0.675781 -15.203125 0.675781 -14.660156 C 0.675781 -14.113281 0.867188 -13.652344 1.261719 -13.257812 C 1.644531 -12.863281 2.105469 -12.671875 2.660156 -12.671875 Z M 0.957031 0 L 4.34375 0 L 4.34375 -11.351562 L 0.957031 -11.351562 Z M 0.957031 0 "/></g></g><g transform="translate(6.575791, 49.097785)"><g><path d="M 12.351562 0 L 12.351562 -5.675781 C 12.351562 -7.589844 12.007812 -9.042969 11.332031 -10.042969 C 10.65625 -11.039062 9.539062 -11.535156 7.984375 -11.535156 C 6.199219 -11.535156 4.980469 -10.96875 4.34375 -9.851562 L 4.195312 -11.351562 L 0.957031 -11.351562 L 0.957031 0 L 4.34375 0 L 4.34375 -5.675781 C 4.34375 -7.519531 5.234375 -8.660156 6.816406 -8.660156 C 8.316406 -8.660156 8.960938 -7.640625 8.960938 -5.675781 L 8.960938 0 Z M 12.351562 0 "/></g></g><g transform="translate(19.873784, 49.097785)"><g><path d="M 5.90625 -11.535156 C 2.996094 -11.59375 0.574219 -9.082031 0.613281 -5.675781 C 0.574219 -2.269531 2.996094 0.230469 5.90625 0.171875 C 7.734375 0.171875 9.074219 -0.394531 9.667969 -1.511719 L 9.828125 0 L 13.054688 0 L 13.054688 -15.484375 L 9.667969 -15.484375 L 9.667969 -9.851562 C 9.0625 -10.910156 7.683594 -11.535156 5.90625 -11.535156 Z M 6.835938 -2.691406 C 6.039062 -2.691406 5.375 -2.972656 4.828125 -3.527344 C 4.273438 -4.082031 4.003906 -4.800781 4.003906 -5.675781 C 4.003906 -6.554688 4.273438 -7.277344 4.820312 -7.832031 C 5.363281 -8.386719 6.039062 -8.660156 6.835938 -8.660156 C 7.632812 -8.660156 8.308594 -8.386719 8.851562 -7.832031 C 9.394531 -7.277344 9.667969 -6.554688 9.667969 -5.675781 C 9.667969 -4.800781 9.394531 -4.082031 8.851562 -3.527344 C 8.308594 -2.972656 7.632812 -2.691406 6.835938 -2.691406 Z M 6.835938 -2.691406 "/></g></g><g transform="translate(33.897673, 49.097785)"><g><path d="M 6.84375 0.171875 C 8.507812 0.171875 10.0625 -0.382812 11.199219 -1.359375 C 12.339844 -2.339844 13.066406 -3.890625 13.066406 -5.675781 C 13.066406 -7.460938 12.339844 -9.023438 11.199219 -10 C 10.0625 -10.96875 8.507812 -11.535156 6.84375 -11.535156 C 5.160156 -11.535156 3.621094 -10.96875 2.480469 -10 C 1.339844 -9.023438 0.613281 -7.460938 0.613281 -5.675781 C 0.613281 -3.890625 1.339844 -2.339844 2.480469 -1.359375 C 3.621094 -0.382812 5.160156 0.171875 6.84375 0.171875 Z M 4.828125 -3.519531 C 4.273438 -4.074219 4.003906 -4.800781 4.003906 -5.675781 C 4.003906 -6.554688 4.273438 -7.277344 4.828125 -7.832031 C 5.375 -8.386719 6.050781 -8.671875 6.84375 -8.671875 C 7.640625 -8.671875 8.316406 -8.386719 8.871094 -7.832031 C 9.417969 -7.277344 9.6875 -6.554688 9.6875 -5.675781 C 9.6875 -4.800781 9.417969 -4.074219 8.871094 -3.519531 C 8.316406 -2.964844 7.640625 -2.683594 6.84375 -2.683594 C 6.050781 -2.683594 5.375 -2.964844 4.828125 -3.519531 Z M 4.828125 -3.519531 "/></g></g><g transform="translate(47.578778, 49.097785)"><g><path d="M 12.351562 0 L 12.351562 -5.675781 C 12.351562 -7.589844 12.007812 -9.042969 11.332031 -10.042969 C 10.65625 -11.039062 9.539062 -11.535156 7.984375 -11.535156 C 6.199219 -11.535156 4.980469 -10.96875 4.34375 -9.851562 L 4.195312 -11.351562 L 0.957031 -11.351562 L 0.957031 0 L 4.34375 0 L 4.34375 -5.675781 C 4.34375 -7.519531 5.234375 -8.660156 6.816406 -8.660156 C 8.316406 -8.660156 8.960938 -7.640625 8.960938 -5.675781 L 8.960938 0 Z M 12.351562 0 "/></g></g><g transform="translate(60.876771, 49.097785)"><g><path d="M 6.84375 -11.535156 C 5.160156 -11.535156 3.621094 -10.96875 2.480469 -10 C 1.339844 -9.023438 0.613281 -7.480469 0.613281 -5.675781 C 0.613281 -3.871094 1.339844 -2.339844 2.480469 -1.359375 C 3.621094 -0.382812 5.160156 0.171875 6.84375 0.171875 C 8.003906 0.171875 9.0625 -0.0820312 10.042969 -0.59375 C 11.019531 -1.109375 11.765625 -1.824219 12.289062 -2.742188 L 9.40625 -4.144531 C 8.851562 -3.035156 7.996094 -2.480469 6.84375 -2.480469 C 6.199219 -2.480469 5.625 -2.683594 5.132812 -3.085938 C 4.636719 -3.488281 4.292969 -4.03125 4.125 -4.707031 L 12.914062 -4.707031 C 13.066406 -6.804688 12.472656 -8.601562 11.382812 -9.738281 C 10.285156 -10.878906 8.691406 -11.535156 6.84375 -11.535156 Z M 8.621094 -8.289062 C 9.09375 -7.882812 9.417969 -7.339844 9.578125 -6.644531 L 4.113281 -6.644531 C 4.265625 -7.339844 4.585938 -7.894531 5.070312 -8.289062 C 5.546875 -8.679688 6.140625 -8.882812 6.84375 -8.882812 C 7.542969 -8.882812 8.136719 -8.679688 8.621094 -8.289062 Z M 8.621094 -8.289062 "/></g></g><g transform="translate(74.436894, 49.097785)"><g><path d="M 10.695312 -8.289062 C 10.546875 -10.414062 8.792969 -11.535156 5.898438 -11.535156 C 2.722656 -11.535156 0.886719 -10.394531 0.886719 -8.246094 C 0.886719 -7.398438 1.117188 -6.796875 1.492188 -6.351562 C 1.683594 -6.121094 1.964844 -5.917969 2.339844 -5.746094 C 2.710938 -5.566406 3.117188 -5.414062 3.527344 -5.28125 C 3.941406 -5.152344 4.496094 -5.011719 5.183594 -4.839844 C 6.785156 -4.488281 7.582031 -3.980469 7.582031 -3.328125 C 7.582031 -2.632812 6.867188 -2.207031 5.859375 -2.207031 C 4.929688 -2.207031 4.152344 -2.710938 3.992188 -3.546875 L 0.613281 -3.296875 C 0.707031 -2.175781 1.210938 -1.320312 2.128906 -0.726562 C 3.042969 -0.132812 4.285156 0.171875 5.859375 0.171875 C 9.09375 0.171875 10.910156 -1.109375 10.988281 -3.4375 C 11.03125 -4.476562 10.625 -5.152344 9.828125 -5.6875 C 9.578125 -5.859375 9.253906 -6.019531 8.851562 -6.171875 C 8.046875 -6.484375 7.277344 -6.695312 6.058594 -6.988281 C 5.664062 -7.085938 5.363281 -7.179688 5.140625 -7.257812 C 4.6875 -7.421875 4.273438 -7.742188 4.273438 -8.1875 C 4.273438 -8.84375 4.878906 -9.203125 5.816406 -9.203125 C 6.613281 -9.203125 7.199219 -8.710938 7.308594 -8.105469 Z M 10.695312 -8.289062 "/></g></g><g transform="translate(86.03105, 49.097785)"><g><path d="M 2.660156 -12.671875 C 3.195312 -12.671875 3.660156 -12.863281 4.054688 -13.257812 C 4.4375 -13.652344 4.628906 -14.113281 4.628906 -14.660156 C 4.628906 -15.203125 4.4375 -15.667969 4.054688 -16.058594 C 3.660156 -16.445312 3.195312 -16.636719 2.660156 -16.636719 C 2.105469 -16.636719 1.644531 -16.445312 1.261719 -16.058594 C 0.867188 -15.667969 0.675781 -15.203125 0.675781 -14.660156 C 0.675781 -14.113281 0.867188 -13.652344 1.261719 -13.257812 C 1.644531 -12.863281 2.105469 -12.671875 2.660156 -12.671875 Z M 0.957031 0 L 4.34375 0 L 4.34375 -11.351562 L 0.957031 -11.351562 Z M 0.957031 0 "/></g></g><g transform="translate(91.334117, 49.097785)"><g><path d="M 5.90625 -11.535156 C 2.996094 -11.59375 0.574219 -9.082031 0.613281 -5.675781 C 0.574219 -2.269531 2.996094 0.230469 5.90625 0.171875 C 7.832031 0.171875 9.09375 -0.394531 9.6875 -1.511719 L 9.828125 0 L 13.066406 0 L 13.066406 -11.351562 L 9.828125 -11.351562 L 9.6875 -9.851562 C 9.074219 -10.910156 7.683594 -11.535156 5.90625 -11.535156 Z M 4.828125 -3.527344 C 4.285156 -4.082031 4.011719 -4.800781 4.011719 -5.675781 C 4.011719 -6.554688 4.285156 -7.277344 4.828125 -7.832031 C 5.375 -8.386719 6.050781 -8.660156 6.84375 -8.660156 C 7.640625 -8.660156 8.316406 -8.386719 8.871094 -7.832031 C 9.417969 -7.277344 9.6875 -6.554688 9.6875 -5.675781 C 9.6875 -4.800781 9.417969 -4.082031 8.871094 -3.527344 C 8.316406 -2.972656 7.640625 -2.691406 6.84375 -2.691406 C 6.050781 -2.691406 5.375 -2.972656 4.828125 -3.527344 Z M 4.828125 -3.527344 "/></g></g><g transform="translate(105.358005, 49.097785)"><g><path d="M 4.394531 -5.121094 L 4.628906 -14.457031 L 1.238281 -14.457031 L 1.460938 -5.121094 Z M 2.945312 -3.800781 C 2.398438 -3.800781 1.9375 -3.609375 1.542969 -3.226562 C 1.148438 -2.832031 0.957031 -2.371094 0.957031 -1.816406 C 0.957031 -1.28125 1.148438 -0.816406 1.542969 -0.433594 C 1.9375 -0.0390625 2.398438 0.152344 2.945312 0.152344 C 3.476562 0.152344 3.941406 -0.0390625 4.324219 -0.433594 C 4.707031 -0.816406 4.898438 -1.28125 4.898438 -1.816406 C 4.898438 -2.359375 4.707031 -2.824219 4.324219 -3.214844 C 3.941406 -3.609375 3.476562 -3.800781 2.945312 -3.800781 Z M 2.945312 -3.800781 "/></g></g></g></svg>